# ¡” ≈“ Õ≈ —»À‹ÕŒ — –≈Ÿ≈ÕÕ€…. 3 —–≈«¿
# 3ds Max Wavefront OBJ Exporter v0.97b - (c)2007 guruware
# File Created: 12.07.2022 12:53:25

mtllib DSFSDF.mtl

#
# object Plane002
#

v  -0.316000 0.330000 -0.399894
v  -0.250000 0.000000 -0.400000
v  -0.151000 0.330000 -0.114106
v  0.118000 0.660000 0.466346
v  0.050000 1.000000 0.466346
v  -0.052000 0.660000 0.171788
v  -0.500000 0.330000 -0.166000
v  -0.500000 0.000000 -0.100000
v  -0.170000 0.330000 -0.166000
v  0.500000 0.660000 -0.232000
v  0.500000 1.000000 -0.300000
v  0.160000 0.660000 -0.232000
v  0.316000 0.330000 -0.399679
v  0.250000 0.000000 -0.399679
v  0.151000 0.330000 -0.113891
v  -0.118000 0.660000 0.466346
v  -0.050000 1.000000 0.466346
v  0.052000 0.660000 0.171898
v  -0.450000 1.000000 -0.399679
v  -0.382000 0.660000 -0.399788
v  -0.298269 0.660000 -0.254761
v  0.250000 0.000000 0.466346
v  0.184000 0.330000 0.466346
v  -0.500000 1.000000 -0.300000
v  -0.500000 0.660000 -0.232000
v  -0.332537 0.660000 -0.232000
v  0.500000 0.000000 -0.100000
v  0.500000 0.330000 -0.166000
v  0.450000 1.000000 -0.399680
v  0.382000 0.660000 -0.399680
v  0.298269 0.660000 -0.254653
v  -0.250000 0.000000 0.466346
v  -0.184000 0.330000 0.466346
# 33 vertices

vn -0.853297 -0.170818 0.492651
vn -0.866025 0.000000 0.500000
vn -0.853347 -0.170749 0.492589
vn -0.853397 -0.170679 0.492526
vn -0.853347 -0.170748 0.492589
vn 0.000000 0.196116 0.980581
vn 0.000000 0.000000 1.000000
vn -0.853320 0.170664 -0.492664
vn -0.866025 0.000000 -0.500000
vn -0.853320 0.170664 -0.492665
vn -0.853397 -0.170679 0.492527
# 11 vertex normals

vt 0.000000 0.330000 0.000000
vt 0.000000 0.000000 0.000000
vt 0.330000 0.330000 0.000000
vt 1.000000 0.660000 0.000000
vt 1.000000 1.000000 0.000000
vt 0.660000 0.660000 0.000000
vt 0.000000 1.000000 0.000000
vt 0.000000 0.660000 0.000000
vt 0.167463 0.660000 0.000000
vt 1.000000 0.000000 0.000000
vt 1.000000 0.330000 0.000000
# 11 texture coords

g Plane002
usemtl wire_008061138
f 1/1/1 2/2/2 3/3/3 
f 4/4/4 5/5/2 6/6/5 
f 7/1/6 8/2/7 9/3/6 
f 10/4/6 11/5/7 12/6/6 
f 13/1/8 14/2/9 15/3/10 
f 16/4/10 17/5/9 18/6/10 
f 19/7/1 20/8/1 21/9/1 
f 21/9/1 3/3/3 6/6/5 
f 22/10/11 23/11/4 3/3/3 
f 22/10/11 3/3/3 2/2/11 
f 24/7/6 25/8/6 26/9/6 
f 26/9/6 9/3/6 12/6/6 
f 27/10/6 28/11/6 9/3/6 
f 27/10/6 9/3/6 8/2/6 
f 29/7/8 30/8/8 31/9/8 
f 31/9/8 15/3/10 18/6/10 
f 32/10/10 33/11/10 15/3/10 
f 32/10/10 15/3/10 14/2/10 
f 23/11/4 4/4/4 6/6/5 
f 23/11/4 6/6/5 3/3/3 
f 28/11/6 10/4/6 12/6/6 
f 28/11/6 12/6/6 9/3/6 
f 33/11/10 16/4/10 18/6/10 
f 33/11/10 18/6/10 15/3/10 
f 21/9/1 20/8/1 3/3/3 
f 20/8/1 1/1/1 3/3/3 
f 19/7/1 21/9/1 6/6/5 
f 19/7/1 6/6/5 5/5/1 
f 26/9/6 25/8/6 9/3/6 
f 25/8/6 7/1/6 9/3/6 
f 24/7/6 26/9/6 12/6/6 
f 24/7/6 12/6/6 11/5/6 
f 31/9/8 30/8/8 15/3/10 
f 30/8/8 13/1/8 15/3/10 
f 29/7/8 31/9/8 18/6/10 
f 29/7/8 18/6/10 17/5/8 
# 36 faces
