# 3ds Max Wavefront OBJ Exporter v0.97b - (c)2007 guruware
# File Created: 11.07.2022 16:31:56

mtllib 777.mtl

#
# object Plane001
#

v  -0.500000 0.333333 -0.00000
v  -0.500000 -0.000000 -0.00000
v  0.500000 0.333333 -0.00000
v  0.500000 -0.000000 -0.00000
v  -0.500000 0.666667 -0.00000
v  0.500000 0.666667 -0.00000
v  -0.500000 1.000000 -0.00000
v  0.500000 1.000000 -0.00000
# 8 vertices

vn 0.000000 -0.000000 1.000000
# 1 vertex normals

vt 0.000000 0.333333 0.000000
vt 0.000000 0.000000 0.000000
vt 1.000000 0.333333 0.000000
vt 1.000000 0.000000 0.000000
vt 0.000000 0.666667 0.000000
vt 1.000000 0.666667 0.000000
vt 0.000000 1.000000 0.000000
vt 1.000000 1.000000 0.000000
# 8 texture coords

g Plane001
usemtl wire_027177148
f 1/1/1 2/2/1 3/3/1 
f 4/4/1 3/3/1 2/2/1 
f 5/5/1 1/1/1 6/6/1 
f 3/3/1 6/6/1 1/1/1 
f 7/7/1 5/5/1 8/8/1 
f 6/6/1 8/8/1 5/5/1 
# 6 faces
