# “–Œ≈ œ≈–≈ –≈Ÿ≈ÕÕ€’ —À¿¡Œ
# 3ds Max Wavefront OBJ Exporter v0.97b - (c)2007 guruware
# File Created: 12.07.2022 12:22:04

mtllib dfgdfgfg.mtl

#
# object Plane002
#

v  -0.450000 1.000000 -0.443679
v  -0.450000 0.000000 -0.443680
v  0.050000 1.000000 0.422346
v  0.050000 0.000000 0.422346
v  -0.500000 1.000000 -0.350667
v  -0.500000 0.000000 -0.350667
v  0.500000 1.000000 -0.350667
v  0.500000 0.000000 -0.350667
v  0.450000 1.000000 -0.443680
v  0.450000 0.000000 -0.443679
v  -0.050000 1.000000 0.422346
v  -0.050000 0.000000 0.422346
# 12 vertices

vn -0.866025 0.000000 0.500000
vn -0.866026 0.000000 0.500000
vn 0.000000 0.000000 1.000000
vn -0.866025 0.000000 -0.500000
# 4 vertex normals

vt 0.000000 1.000000 0.000000
vt 0.000000 0.000000 0.000000
vt 1.000000 1.000000 0.000000
vt 1.000000 0.000000 0.000000
# 4 texture coords

g Plane002
usemtl wire_008061138
f 1/1/1 2/2/1 3/3/1 
f 4/4/2 3/3/1 2/2/1 
f 5/1/3 6/2/3 7/3/3 
f 8/4/3 7/3/3 6/2/3 
f 9/1/4 10/2/4 11/3/4 
f 12/4/4 11/3/4 10/2/4 
# 6 faces
