# 3ds Max Wavefront OBJ Exporter v0.97b - (c)2007 guruware
# File Created: 26.12.2020 11:55:48

mtllib df.mtl

#
# object Plane016
#

v  0.000000 0.000000 -1.000000
v  0.000000 0.000000 1.000000
v  0.000000 1.000000 1.000000
v  0.000000 1.000000 -1.000000
v  0.866000 0.000000 -0.500000
v  -0.866000 0.000000 0.500000
v  -0.866000 1.000000 0.500000
v  0.866000 1.000000 -0.500000
v  0.866000 0.000000 0.500000
v  -0.866000 0.000000 -0.500000
v  -0.866000 1.000000 -0.500000
v  0.866000 1.000000 0.500000
# 12 vertices

vn -1.000000 0.000000 -0.000000
vn -0.500011 0.000000 -0.866019
vn 0.500011 0.000000 -0.866019
# 3 vertex normals

vt 0.000000 0.000000 0.000000
vt 1.000000 0.000000 0.000000
vt 1.000000 1.000000 0.000000
vt 0.000000 1.000000 0.000000
# 4 texture coords

g Plane016
usemtl grass_long_1
f 1/1/1 2/2/1 3/3/1 
f 3/3/1 4/4/1 1/1/1 
f 5/1/2 6/2/2 7/3/2 
f 7/3/2 8/4/2 5/1/2 
f 9/1/3 10/2/3 11/3/3 
f 11/3/3 12/4/3 9/1/3 
# 6 faces

